<?xml version="1.0" encoding="utf-8"?>
<!-- Generator: Adobe Illustrator 24.3.0, SVG Export Plug-In . SVG Version: 6.00 Build 0)  -->
<svg version="1.1" xmlns="http://www.w3.org/2000/svg" xmlns:xlink="http://www.w3.org/1999/xlink" x="0px" y="0px"
	 viewBox="0 0 240.391 226.414" enable-background="new 0 0 240.391 226.414" xml:space="preserve">
<g id="Layer_2">
	<path fill-rule="evenodd" clip-rule="evenodd" d="M151.646,75.251c0.252,0.394,0.456,0.797,0.639,1.227
		c0.37,0.882,0.702,1.697,0.916,2.635c0.031,0.14,0.069,0.327,0.153,0.445c0.077,0.01,0.489-0.716,0.566-0.837
		c0.1-0.158,0.202-0.314,0.306-0.469c1.003-1.429,2.141-2.761,3.109-4.213c0.544-0.816,0.4-1.504,0.512-2.415
		c0.029-0.233,0.065-0.459,0.112-0.688c0.176-0.799,0.301-1.511,0.647-2.264c0.468-0.979,1.777-2.477,2.842-1.295
		c0.428,0.475,0.338,0.207,0.794,0.412c0.275,0.124,0.48,0.35,0.66,0.584l0.029,0.037c1.816,2.378,2.022,6.493,1.556,9.339
		c-0.283,1.732-0.893,3.66-2.043,5.019c-0.492,0.577-0.89,1.332-1.69,1.055c-0.266-0.092-1.925-0.875-1.941-0.484
		c-0.022,0.539,0.58,2.103,0.142,2.435c-1.018,0.77-4.064,1.632-5.326,1.38c-0.349-0.07,0.724,0.857-0.347,1.695
		c-0.418,0.332-0.261,0.342,0.104,0.613c0.275,0.204,0.309,0.22,0.626,0.348c0.436,0.176,0.964,0.602,1.299,0.934l0.014,0.014
		c0.574,0.58,1.095,1.368,1.222,2.187c0.07,0.558-0.177,1.398-0.364,1.93c-0.38,1.069-0.95,1.486-2.078,1.571l-0.028,0.001
		c-0.356,0.009-0.402,0-0.694-0.009c-0.292-0.009-0.347-0.064-0.201,0.128c0.429,0.631,0.823,1.402,1.187,2.08
		c0.3,0.558,0.58,1.119,0.836,1.699c0.195,0.45,0.339,0.911,0.464,1.384c0.1,0.38,0.142,0.704,0.216,1.079
		c0.11,0.559,0.436,0.859,0.84,1.243c0.064,0.061,0.128,0.12,0.193,0.18c1.014,0.978,2.458,2.43,2.759,2.787
		c0.518,0.609,1.094,1.207,1.59,1.83c0.219,0.285,0.115,0.206,0.477,0.359c0.605,0.267,0.379,0.297,0.801,0.66
		c0.231,0.189,0.524,0.273,0.7,0.427c0.227,0.223,0.158,0.535,0.026,0.791c-0.21,0.407-0.621,0.216-1,0.567
		c-0.438,0.407-0.564,0.538-1.194,0.391c-0.473-0.111-0.559-0.292-1.072-0.126c-0.352,0.114-0.356,0.056-0.662,0.071
		c-0.303,0.015-0.274,0.204-0.689,0.224c-0.269,0.013-0.259,0.165-0.544,0.206c-0.345,0.05-0.733-0.169-1.095-0.206
		c-0.196-0.015-0.29,0.02-0.428-0.125c-0.14-0.148-0.453-0.149-0.661-0.181c-1.651-0.252-2.685-1.174-4.106-1.912
		c-0.077-0.04-0.154-0.079-0.233-0.117c-0.616-0.299-1.282-0.503-1.913-0.772c-0.446-0.192-1.021-0.164-1.501-0.169
		c-0.975-0.014-1.925-0.005-2.898-0.102c-1.376-0.129-1.817,0.19-3.033,0.712c-1.955,0.839-3.467,1.424-5.643,1.341
		c-0.539-0.024-1.044-0.089-1.577-0.169c-0.332-0.049-0.678,0.036-0.999,0.111c-0.37,0.086-0.789-0.111-1.09-0.313
		c-0.268-0.179-0.448-0.249-0.72-0.392c-0.241-0.127-0.38-0.284-0.621-0.41c-0.195-0.102-0.286-0.132-0.43-0.299
		c-0.175-0.205-0.289,0.023-0.492-0.166c-0.184-0.172-0.187-0.626-0.092-0.843c0.125-0.247,0.489-0.338,0.73-0.457
		c0.204-0.105,0.259-0.104,0.47-0.173c0.22-0.072,0.307-0.234,0.612-0.273c0.403-0.052,0.356-0.026,0.542-0.408
		c0.131-0.271,0.235-0.521,0.391-0.783c0.401-0.664,0.972-1.406,1.47-2.005c0.455-0.547,1.044-1.105,1.555-1.608
		c0.26-0.256,0.52-0.501,0.799-0.736c0.193-0.162,0.237-0.188,0.223-0.454c-0.01-0.192-0.048-0.402-0.063-0.605
		c-0.022-0.304-0.037-0.608-0.059-0.912c-0.155-2.151-0.179-4.359-0.711-6.459c-0.053-0.204-0.175-0.703-0.406-0.762
		c-0.211-0.006-0.875,0.391-1.084,0.514c-0.375,0.21-0.751,0.419-1.13,0.622c-0.714,0.38-1.655,0.73-2.465,0.796
		c-0.694,0.056-1.365-0.065-2.008-0.33c-0.416-0.171-0.658-0.45-1.124-0.619c-0.473-0.172-0.742-0.287-1.099-0.668
		c-0.339-0.362-0.442-0.749-0.571-1.213c-0.36-1.294-0.158-2.061,0.452-3.233c0.413-0.782,0.874-1.208,1.686-1.557
		c0.144-0.056,0.291-0.107,0.437-0.157c0.251-0.087,0.162-0.156,0.018-0.334c-0.576-0.708-0.874-1.496-0.304-2.312
		c0.248-0.356,0.128-0.204,0.017-0.534c-0.122-0.364-0.019-0.247-0.391-0.471c-1.038-0.624-2-1.057-2.911-1.895l-0.035-0.032
		c-1.2-1.113-2.138-2.757-2.593-4.323c-0.178-0.612-0.292-1.225-0.341-1.861l-0.003-0.042c-0.123-1.847-0.014-3.581,0.392-5.391
		c0.13-0.579,0.288-1.143,0.48-1.704c0.224-0.631,0.936-2.092,1.558-2.333c0.13-0.05,0.232-0.052,0.364-0.014
		c0.25,0.085,0.54,0.238,0.799,0.339c0.137,0.054,0.672,0.267,0.767,0.07c0.094-0.193-0.074-0.866-0.126-1.095
		c-0.013-0.056-0.025-0.112-0.037-0.169c-0.081-0.379-0.302-1.024-0.218-1.379c0.085-0.356,0.493-0.624,0.768-0.845
		c0.849-0.682,2.066-1.371,3.18-0.977c0.227,0.084,0.402,0.199,0.557,0.387c0.135,0.173,0.131,0.132,0.364,0.157
		c0.76,0.083,0.917,0.74,0.839,1.391c-0.18,1.508-0.958,3.025-1.481,4.448c-0.393,1.074-0.238,1.447,0.002,2.519
		c0.044,0.197,0.088,0.393,0.131,0.59c0.217,1.03,0.37,1.935,0.462,2.986c0.017,0.188,0.031,0.376,0.046,0.565
		c0.048,0.624,0.291,0.151,0.463-0.11c0.382-0.577,0.67-0.965,1.181-1.439c0.512-0.492,0.636-0.869,1.357-1.138
		c0.411-0.154,0.543-0.188,0.931-0.433c0.476-0.301,0.782-0.471,1.311-0.679c0.759-0.299,1.566-0.508,2.371-0.637
		c0.694-0.102,1.351-0.118,2.05-0.069c0.482,0.035-0.232-0.307-0.145-0.469c0.104-0.125,0.535-0.121,0.703-0.128
		c0.122-0.005,0.474,0.029,0.535,0.016c0.26-0.054-0.578-0.416-0.393-0.594c0.196-0.188,1.431,0.287,1.652,0.415
		c0.27,0.156,0.179,0.218,0.196-0.214c0.027-0.671,0.347-0.177,0.533,0.087c0.258,0.368,0.407,0.683,0.733,1.006
		c0.17,0.168,0.257,0.261,0.406,0.45c0.335,0.424,1.179,0.642,1.678,0.852c0.914,0.383,2.029,1.101,2.792,1.734
		C150.56,73.876,151.162,74.511,151.646,75.251L151.646,75.251z"/>
	<path fill-rule="evenodd" clip-rule="evenodd" fill="#5275A6" d="M161.413,109.217c0.509,0.623,0.565,1.113,0.17,1.47
		c0.047-0.321-0.066-0.59-0.338-0.809c0.159,0.369,0.2,0.627,0.123,0.777c-0.458-0.717-1.874-0.238-1.708,0.509
		c-0.277-0.041-0.441-0.241-0.493-0.601c-0.07,0.193-0.052,0.377,0.055,0.55c0,0-0.326,0.028-0.979,0.083
		c0.066-0.254,0.041-0.458-0.073-0.612c-0.049,0.401-0.167,0.661-0.352,0.781c0.022-0.563-0.282-0.826-0.833-0.85
		c-0.369-0.016-0.951,0.111-1.04,0.544c-0.032,0.156-0.002,0.306,0.041,0.457c-0.41-0.062-0.598-0.347-0.566-0.854
		c-0.107,0.142-0.136,0.309-0.087,0.502c-0.913-0.111-1.81-0.457-2.69-1.037c-0.81-0.495-1.557-0.883-2.238-1.165
		c-0.769-0.36-1.339-0.581-1.708-0.662c0.604-0.051,1.067-0.154,1.389-0.311c-3.335,0.201-6.525,0.06-9.529-0.324
		c0.688,0.269,1.372,0.42,2.051,0.452c-1.043,0.406-2.078,0.78-3.106,1.119c-1.928,0.885-3.578,0.797-5.623,0.651
		c0.036-0.134,0.026-0.277-0.03-0.429c-0.041,0.31-0.168,0.494-0.381,0.553c0.626-1.158-1.783-1.546-1.752-0.418
		c-0.351-0.12-0.457-0.378-0.318-0.774c-0.13,0.033-0.201,0.165-0.212,0.395c-0.35-0.36-0.058-1.08,0.372-1.217
		c-0.055,0.107-0.081,0.192-0.078,0.256c0.334-0.34,0.737-0.548,1.208-0.624c0,0.126,0,0.212,0,0.258
		c0.184-0.392,0.421-0.788,0.71-1.188c0.348-0.553,0.931-1.303,1.749-2.252c0.699-0.805,1.441-1.576,2.229-2.311
		c0.141,0.905,0.376,1.648,0.703,2.229c-0.007-0.184-0.047-0.433-0.119-0.745c0.948,1.486,2.026,2.486,3.234,3.001
		c2.111,0.825,4.307,1.001,6.587,0.53c1.481-0.205,2.443-0.901,2.887-2.088c0.693-1.608,0.587-3.417-0.32-5.427
		c-0.439-1.336-1.627-2.792-3.563-4.367c-1.015-0.798-1.91-1.644-2.686-2.54c-0.431-0.644-0.613-1.369-0.548-2.174
		c0.169-0.906,0.66-1.709,1.472-2.404c0.359-0.006,0.538-0.008,0.538-0.008c-0.755,0.608-1.099,1.238-1.032,1.891
		c0.341-0.914,0.832-1.532,1.471-1.855c0.968,0.006,1.453,0.009,1.453,0.009c-0.608,0.654-0.763,1.579-0.466,2.777
		c0.191,0.828,0.537,1.475,0.976,2.191c-0.803-0.363-1.757-0.785-2.653-0.757c0.893,0.278,2.101,0.715,2.871,1.237
		c0.282,0.191,0.361,0.423,0.573,0.667c0.812,0.893,1.701,1.238,2.836,1.549c0.289,0.079,0.239,0.114,0.389,0.351
		c0.508,0.8,0.973,1.6,1.357,2.467l0.009,0.02c0.736,1.64,1.151,2.922,1.242,3.846c-0.303-0.276-0.599-0.488-0.891-0.635
		c0.653,0.615,1.225,1.199,1.718,1.754c1.702,1.721,2.553,2.581,2.553,2.581c0.902,0.86,1.596,1.597,2.083,2.211
		c0.27,0.26,0.422,0.48,0.457,0.658c0.071-0.039,0.063-0.154-0.023-0.347c0.313,0.027,0.601,0.28,0.863,0.758
		C161.398,109.466,161.419,109.366,161.413,109.217L161.413,109.217z"/>
	<path fill-rule="evenodd" clip-rule="evenodd" fill="#59C5DD" d="M147,74.441c0.741-0.44,1.42-0.473,2.036-0.101
		c1.137,0.553,1.96,1.549,2.467,2.987c0.509,1.533,0.71,3.132,0.603,4.796c0.006,0.301-0.018,0.587-0.072,0.859v0l-0.002,0.005
		c-0.204,0.406-0.51,0.881-0.785,1.193l0,0c-0.032,0.005-0.062,0.019-0.088,0.042c-0.031,0.027-0.05,0.062-0.057,0.1
		c-0.716,0.628-1.753,1.124-2.856,1.231l-0.001,0l-0.001,0l-0.001,0c-0.721-0.647-2.157-1.165-3.264-0.772
		c-0.635-0.488-1.132-0.879-1.144-1.749c-0.008-0.676,0.038-1.209,0.164-1.872c0.08-0.419,0.172-0.845,0.264-1.261
		c0.258-1.161,0.81-2.556,1.357-3.615c0.326-0.633,0.725-1.223,1.262-1.697C146.913,74.559,146.958,74.499,147,74.441L147,74.441z"
		/>
	<path fill-rule="evenodd" clip-rule="evenodd" d="M144.317,83.186l-0.174,0.119c0.114-1.264,0.392-2.414,1.098-3.488
		c0.984-1.496,2.353-1.89,3.877-0.845c0.407,0.28,0.778,0.616,0.965,1.084c0.548,1.376-0.432,2.913-1.441,3.794
		c-0.489,0.414-0.89,0.544-1.521,0.596c-1.147,0.088-2.028-0.38-2.774-1.225L144.317,83.186L144.317,83.186z"/>
	<path fill-rule="evenodd" clip-rule="evenodd" fill="#59C5DD" d="M130.825,83.295l-0.001-0.001c0.077-0.218,0.191-0.43,0.304-0.612
		c0.037-0.06,0.038-0.131,0.002-0.192c-0.036-0.061-0.098-0.094-0.169-0.091c-0.242,0.012-0.452,0.065-0.622,0.163l0,0
		c-0.206-0.246-0.383-0.715-0.521-1.389c-0.002,0.023-0.005,0.047-0.007,0.07v0c-0.032-0.261-0.021-0.517,0.031-0.767
		c0.236-2.187,2.139-7.026,4.458-7.72c0.489-0.132,0.908,0.123,1.256,0.766l0,0.001l0,0.001l0,0.001l0,0.001l0,0.001l0,0.001
		l0,0.001l0.004,0.035l0,0.001l0,0.001l0,0.001l0,0.001c0.022,0.199,0.069,0.406,0.098,0.608c0.252,1.873,0.117,4.013-0.116,5.887
		c-0.122,0.98-0.348,2.195-0.948,3.001c-0.008,0.011-0.017,0.021-0.025,0.032c-0.008,0.011-0.017,0.021-0.025,0.031v0
		c-0.008,0.01-0.017,0.021-0.025,0.031v0c-0.009,0.01-0.017,0.02-0.026,0.03v0c-0.518,0.595-1.214,0.815-2.007,0.806
		c-0.052-0.001-0.104-0.004-0.156-0.009c-0.467-0.045-0.968-0.253-1.324-0.54c-0.063-0.051-0.121-0.103-0.18-0.159L130.825,83.295
		L130.825,83.295z"/>
	<path fill-rule="evenodd" clip-rule="evenodd" d="M134.785,82.484c-0.004-0.023-0.015-0.119-0.034-0.29
		c-0.796,0.896-1.8,1.024-2.706,0.195c-0.716-0.662-1.025-1.71-0.99-2.664c0.027-0.688,0.191-1.436,0.648-1.972
		c0.592-0.677,1.551-1.004,2.356-0.487c0.702,0.463,0.861,1.759,0.896,2.53c0.019,0.421,0.011,0.842-0.01,1.262
		c-0.002,0.035-0.004,0.071-0.005,0.106C134.921,81.539,134.889,82.125,134.785,82.484L134.785,82.484z"/>
	<path fill-rule="evenodd" clip-rule="evenodd" fill="#5275A6" d="M135.331,71.936c0.211,0.171,0.297,0.331,0.26,0.48
		c-0.569-0.509-1.184-0.423-1.846,0.256c1.071-0.612,1.676-0.358,1.816,0.893c0.022,0.199,0.069,0.406,0.098,0.608
		c0.252,1.873,0.117,4.013-0.116,5.887c-0.122,0.98-0.348,2.195-0.948,3.001c-0.527,0.689-1.262,0.942-2.108,0.93
		c-0.509-0.007-1.084-0.23-1.481-0.549c-0.063-0.051-0.121-0.103-0.18-0.159c-0.034,0.167-0.067,0.335-0.101,0.502
		c0.258,0.141,0.38,0.401,0.424,0.68c0.257-0.239,0.524-0.295,0.853-0.169c-0.135,0.03-0.25,0.054-0.378,0.11
		c0.533,0.375,1.07,0.474,1.708,0.491c1.824,0.049,3.658,0.169,5.477,0.313c0,0-0.003-0.162-0.009-0.573
		c-1.395-0.328-2.499-1.284-3.029-2.708c-0.397-1.066-0.155-2.332,0.559-3.19c1.95-2.231,6.629-1.426,7.423,1.831
		c0.124,0.702,0.021,1.206-0.23,1.744c-0.787,1.585-2.773,2.553-4.508,2.373c0.018,0.384,0.027,0.532,0.027,0.532
		c1.215,0.123,2.412,0.291,3.59,0.502c0.541,0.171,0.941,0.13,1.201-0.123c0.084-0.094,0.221-0.197,0.413-0.311
		c-0.352-0.197-0.538-0.421-0.557-0.672c0.316,0.346,0.555,0.532,0.715,0.557c0.234-0.19,0.424-0.321,0.571-0.393
		c-0.635-0.488-1.132-0.879-1.144-1.749c-0.008-0.676,0.038-1.209,0.164-1.872c0.08-0.419,0.172-0.845,0.264-1.261
		c0.258-1.161,0.81-2.556,1.357-3.615c0.326-0.633,0.725-1.223,1.262-1.697c0.052-0.046,0.141-0.183,0.194-0.249
		c1.241-1.529,2.898,0.086,3.799,1.116c-0.651-1.561-1.808-2.249-3.472-2.065c0.345-0.29,0.842-0.366,1.494-0.228
		c-1.219-1.132-2.687-1.899-4.404-2.302c0.141-0.052,0.338-0.049,0.591,0.009c-0.411-0.382-0.702-0.814-0.875-1.297
		c-0.051-0.14-0.111-0.299-0.182-0.43c-0.024-0.044-0.115-0.214-0.182-0.13c-0.084,0.13-0.036,0.467-0.008,0.617
		c0.025,0.125,0.084,0.15,0.159,0.24c0.099,0.117,0.184,0.244,0.228,0.393l0.001,0.004l0.001,0.004l0.001,0.004
		c-0.6-0.592-1.262-1.043-2.102-1.206c-0.036-0.007-0.095-0.03-0.108,0.023c-0.02,0.082,0.18,0.189,0.24,0.223l0.003,0.002
		c0.521,0.271,0.879,0.526,1.073,0.763c-0.765-0.328-1.49-0.44-2.174-0.338c0.421,0.117,0.78,0.269,1.161,0.483
		c0.118,0.066,0.197,0.078,0.325,0.107c0.294,0.07,0.578,0.164,0.854,0.289l0.004,0.002l0.004,0.002
		C140.112,70.138,137.843,70.415,135.331,71.936L135.331,71.936z"/>
	<path fill-rule="evenodd" clip-rule="evenodd" fill="#59C5DD" d="M148.411,86.64c0.499,0.008,0.872-0.013,1.119-0.062
		c0.044,0.213,0.019,0.406-0.077,0.581c-0.794,0.215-1.362,0.454-1.704,0.719c-1.662,0.057-3.178,0.005-4.55-0.155
		c0.422,0.3,1.274,0.422,1.825,0.431c-0.216,0.185-0.41,0.378-0.58,0.578c-0.01,0.011-0.019,0.023-0.029,0.034
		c-0.405,0.484-0.677,1.011-0.818,1.582l0,0c-0.003,0.014-0.007,0.028-0.01,0.042v0c-0.003,0.014-0.006,0.028-0.01,0.042v0
		c-0.003,0.014-0.006,0.028-0.009,0.042c-0.003,0.014-0.006,0.028-0.009,0.042s-0.005,0.028-0.008,0.042
		c-0.065,0.806,0.118,1.531,0.548,2.174c0.776,0.895,1.671,1.742,2.686,2.54c1.936,1.575,3.124,3.031,3.563,4.367
		c0.906,2.01,1.013,3.819,0.32,5.427c-0.444,1.187-1.406,1.882-2.887,2.088c-2.28,0.471-4.476,0.295-6.587-0.53
		c-1.208-0.515-2.286-1.515-3.234-3.001c-0.276-0.995-0.394-2.298-0.477-3.328c-0.091-1.791-0.183-3.368-0.274-4.732
		c0-1.106-0.274-2.166-0.822-3.179c-0.317-0.597-0.565-1.084-0.745-1.462l0-0.005v0l0-0.005l0,0l0-0.004l0-0.001l0-0.004l0-0.001
		l0-0.004l0-0.002l0-0.003l0-0.002l0-0.003l0-0.002l0-0.002l0-0.003l0-0.002l-0.001-0.003l0-0.002l-0.001-0.004l0-0.001
		l-0.001-0.004l-0.001-0.005l0,0l-0.001-0.005l0,0l-0.001-0.005l0-0.001l-0.001-0.004l0-0.001l-0.001-0.004l0-0.001l-0.001-0.003
		l0-0.002l-0.001-0.003l-0.001-0.002l-0.001-0.003l-0.001-0.003l-0.001-0.002l-0.001-0.003l-0.001-0.002l-0.001-0.003l0-0.001
		l-0.001-0.004l0-0.001l-0.001-0.004l-0.002-0.005l0,0l-0.002-0.005l0,0l-0.002-0.004l0-0.001l-0.001-0.004l0-0.001l-0.001-0.004
		l-0.001-0.002l-0.001-0.003l-0.001-0.002l-0.001-0.003l-0.001-0.002l-0.002-0.005l-0.002-0.005l-0.002-0.005l0-0.001l-0.002-0.004
		l-0.002-0.005l0,0l-0.002-0.005l0,0l-0.002-0.005l-0.002-0.004l0-0.001l-0.001-0.004l-0.001-0.001l-0.001-0.003l-0.001-0.002
		l-0.002-0.005l-0.001-0.003l-0.001-0.003L135.58,90.7l-0.001-0.003l-0.001-0.002l-0.001-0.003l-0.002-0.005l-0.002-0.005
		l-0.002-0.005l0,0l-0.002-0.005l0,0l-0.002-0.005l-0.002-0.005l-0.002-0.005l-0.001-0.003l-0.001-0.002l-0.002-0.005l-0.002-0.005
		l-0.001-0.002l-0.001-0.003l-0.002-0.005l0-0.001l-0.001-0.004l0-0.001l-0.002-0.004l-0.002-0.005
		c-0.006-0.017-0.012-0.035-0.018-0.052l-0.003-0.008c-0.004-0.012-0.008-0.024-0.012-0.035c-0.203-0.614-0.289-1.249-0.292-1.886
		v-0.001l0-0.027v-0.001l0-0.026l0-0.027c0-0.032,0.001-0.063,0.002-0.095l0.001-0.021l0.001-0.038l0.001-0.016l0.002-0.041l0-0.005
		l0.001-0.027l0.001-0.023l0-0.004l0.001-0.027l0.002-0.027l0.002-0.027l0-0.001l0.002-0.026l0.002-0.027l0-0.002l0.003-0.04
		l0.001-0.018l0.003-0.04l0.002-0.021l0.003-0.032l0.002-0.022l0.003-0.036l0.003-0.032l0.002-0.023l0.001-0.005l0.003-0.027
		l0.001-0.005l0.002-0.017l0.005-0.04l0.002-0.019l0.004-0.037l0.003-0.027l0.004-0.029l0.004-0.031l0.004-0.031l0.003-0.024
		l0.006-0.041l0.002-0.012l0.007-0.045l0.002-0.014l0.007-0.045l0.002-0.012l0.006-0.041l0.003-0.02l0.008-0.045l0.001-0.006
		l0-0.002l0.001-0.003l0.009-0.051l0-0.002l0-0.002l0.009-0.05l0.001-0.006l0.001-0.007l0.008-0.046l0.003-0.014l0.008-0.044
		l0.002-0.012c0.011-0.057,0.023-0.114,0.035-0.172l-0.007-0.002l1.401,0.041c-1.069-0.244-1.984-0.474-2.745-0.69
		c-0.247-0.348-0.689-0.645-1.325-0.891c-0.134-0.054-0.305-0.101-0.489-0.182c-0.054-0.024-0.112-0.048-0.173-0.073
		c-0.008-0.088,0.021-0.169,0.087-0.245c0.62,0.157,1.158,0.296,1.638,0.341c1.084,0.046,2.083,0.099,2.996,0.16
		c1.813,0.034,3.393,0.219,5.181,0.49c0.055,0.096,0.124,0.169,0.199,0.233c0.628,0.538,1.449,0.808,2.264,0.883
		c0.393,0.036,0.793,0.021,1.182-0.049c0.031,0.034,0.071,0.06,0.118,0.075c0.381,0.118,0.79,0.141,1.186,0.122l0.029-0.001
		c0.378-0.018,0.66-0.03,1.016-0.184C148.131,86.86,148.293,86.765,148.411,86.64L148.411,86.64z"/>
	<path fill-rule="evenodd" clip-rule="evenodd" fill="#5275A6" d="M129.437,68.605c-1.531,3.51-2.639,7.151-1.941,11.012
		c0.067,0.369,0.154,0.722,0.263,1.081c0.18,0.565,0.413,1.08,0.711,1.593c0.18,0.304-0.353-0.415-0.368-0.438
		c-0.354-0.517-0.45-0.615-1-0.924c-0.936-0.521-1.609-0.659-2.465-1.42c-0.243-0.216-0.305-0.273-0.085,0.047
		c0.874,1.276,1.728,2.173,3.079,2.953c0.294,0.169,0.591,0.32,0.899,0.462l0.042,0.019c0.087,0.039,0.139,0.061,0.234,0.075
		c0.163-0.331,0.11-0.454,0.45-0.709c0.177-0.133,0.15-0.038,0.162-0.276c0.082-1.515,0.317-2.769,0.674-4.238
		c0.42-1.803,0.088-4.32-0.266-6.134c-0.101-0.52-0.229-1.043-0.324-1.559c-0.048-0.262-0.08-0.508-0.093-0.774l-0.002-0.047
		C129.397,69.082,129.406,68.85,129.437,68.605L129.437,68.605z"/>
	<path fill-rule="evenodd" clip-rule="evenodd" fill="#95739D" d="M125.079,65.906c0.279-0.102,0.762,0.189,1.043,0.295
		c1.15,0.401,1.396,0.154,1.153-1.057c-0.06-0.286-0.379-1.525-0.369-1.7c0.033-0.198,0.21-0.269,0.364-0.382
		c0.851-0.622,2.28-1.551,3.377-1.163c0.396,0.14,0.448,0.493,0.415,0.87c-0.054,0.472-0.279,1.221-0.429,1.687
		c-0.255,0.792-0.616,1.571-0.926,2.347c-0.65,1.626-1.333,3.188-1.834,4.872c-0.511,1.723-0.961,3.598-0.969,5.401
		c-0.001,1.367,0.186,2.425,0.652,3.708c0.075,0.207,0.044,0.147-0.105,0.052c-0.509-0.324-0.894-0.508-1.463-0.707
		c-0.697-0.247-1.309-0.714-1.824-1.238c-0.277-0.282-0.579-1.02-0.699-1.399c-0.695-2.203-0.765-4.337-0.328-6.568
		c0.078-0.801,1.063-4.616,1.922-5.008L125.079,65.906L125.079,65.906z"/>
	<path fill-rule="evenodd" clip-rule="evenodd" fill="#5275A6" d="M152.596,85.245c0.167,0.365,0.171,0.733,0.009,1.105
		c1.352,0.02,2.75-0.278,4.193-0.895c-1.572,0.191-2.894,0.102-3.965-0.265C152.834,85.19,152.755,85.208,152.596,85.245
		L152.596,85.245z"/>
	<path fill-rule="evenodd" clip-rule="evenodd" fill="#5275A6" d="M153.793,79.58c-0.861,1.387-1.321,2.365-1.38,2.933
		c-0.054,0.77-0.188,1.485-0.402,2.147c0.057,0.142,0.2,0.288,0.429,0.439c1.079-0.528,1.971-1.396,2.677-2.604
		c0.396-0.663,0.767-1.5,1.115-2.512c0.519-1.752,0.936-3.634,1.252-5.646C156.278,75.894,155.048,77.642,153.793,79.58
		L153.793,79.58z"/>
	<path fill-rule="evenodd" clip-rule="evenodd" fill="#95739D" d="M156.493,80.231c-0.772,2.366-1.915,3.957-3.43,4.776
		c1.286,0.321,2.781,0.444,4.096,0.257c0.352-0.05,0.695-0.206,0.658-0.62c-0.017-0.191-0.058-0.422-0.091-0.613
		c-0.053-0.307-0.118-0.611-0.184-0.916c-0.073-0.269-0.04-0.477,0.098-0.624c0.195-0.13,0.495-0.115,0.9,0.046
		c0.246,0.099,1.506,0.625,1.676,0.553c0.14-0.059,0.609-0.634,0.741-0.792c0.193-0.231,0.35-0.456,0.509-0.711l0.013-0.02
		c1.004-1.608,1.552-3.358,1.715-5.243c0.235-2.411,0.053-4.481-0.548-6.212c-0.316-1.059-0.994-2.797-2.313-2.834
		c-0.632-0.018-1.085,0.853-1.301,1.349c-0.206,0.474-0.36,0.981-0.493,1.481c-0.229,1.08-0.558,2.535-0.731,3.983
		C157.501,76.425,157.148,78.344,156.493,80.231L156.493,80.231z"/>
	<path fill-rule="evenodd" clip-rule="evenodd" fill="#1F2C5E" d="M158.658,105.522c0.348,0,0.631,0.169,0.631,0.377
		s-0.282,0.377-0.631,0.377c-0.348,0-0.631-0.169-0.631-0.377S158.31,105.522,158.658,105.522L158.658,105.522z"/>
	<path fill-rule="evenodd" clip-rule="evenodd" fill="#1F2C5E" d="M161.657,105.356c0.32-0.084,0.619,0.003,0.669,0.194
		s-0.168,0.413-0.488,0.497c-0.32,0.084-0.619-0.003-0.669-0.194C161.119,105.663,161.338,105.44,161.657,105.356L161.657,105.356z"
		/>
	<path fill-rule="evenodd" clip-rule="evenodd" fill="#1F2C5E" d="M138.095,104.159c-0.335-0.053-0.63,0.073-0.66,0.281
		c-0.03,0.208,0.217,0.42,0.551,0.472c0.335,0.053,0.63-0.073,0.66-0.281C138.676,104.423,138.429,104.211,138.095,104.159
		L138.095,104.159z"/>
	<path fill-rule="evenodd" clip-rule="evenodd" d="M157.791,105.276c0.426-0.504,1.043-0.564,1.673-0.179
		C158.835,104.946,158.218,105.005,157.791,105.276L157.791,105.276z"/>
	<path fill-rule="evenodd" clip-rule="evenodd" d="M160.947,105.133c0.264-0.432,0.725-0.548,1.248-0.329
		C161.7,104.762,161.239,104.878,160.947,105.133L160.947,105.133z"/>
	<path fill-rule="evenodd" clip-rule="evenodd" fill="#1F2C5E" d="M163.027,104.651c0.242,0.462,0.169,0.764-0.217,0.905
		C163.018,105.315,163.09,105.013,163.027,104.651L163.027,104.651z"/>
	<path fill-rule="evenodd" clip-rule="evenodd" fill="#1F2C5E" d="M136.64,103.449c-0.303,0.246-0.325,0.491-0.066,0.734
		C136.481,103.951,136.503,103.707,136.64,103.449L136.64,103.449z"/>
	<path fill-rule="evenodd" clip-rule="evenodd" fill="#1F2C5E" d="M152.011,85.987c0.153-0.008,0.274,0.165,0.365,0.521
		c0.252-0.611,0.188-1.053-0.192-1.325C152.139,85.484,152.081,85.752,152.011,85.987L152.011,85.987z"/>
	<path fill-rule="evenodd" clip-rule="evenodd" fill="#5275A6" d="M152.001,87.285c-0.108,0.299-0.333,0.558-0.676,0.776
		c0.592-0.089,0.943-0.512,1.051-1.27c0.263,0.762-0.143,1.37-0.973,1.722c0.112,0.044,0.231,0.049,0.356,0.014
		c-0.339,1.063-1.084,1.765-2.234,2.106c0.926,0.018,1.669-0.472,2.229-1.471c1.277,0.153,2.248,0.998,2.965,2.017
		c0.671,0.952,0.594,1.83,0.146,2.902c-0.077,0.185-0.141,0.369-0.233,0.548c-0.562,1.006-1.567,1.109-2.604,0.929
		c-1.754-0.31-2.96-1.088-3.86-2.638c-0.615-1.065-1.247-2.544-0.874-3.786c0.15-0.499,0.426-0.822,0.866-1.092
		c0.509-0.307,1.195-0.59,1.771-0.737c0.078-0.02,0.087,0.003,0.118,0.083c0.028,0.073,0.027,0.139,0.022,0.216
		c0.131-0.132,0.064-0.467,0.111-0.662c0.15-0.601,0.694-1.189,1.352-0.856c0.206,0.104,0.26,0.189,0.341,0.4
		c0.079-0.202-0.04-0.249-0.018-0.306c0.022-0.057,0.09-0.042,0.131-0.004c0.126,0.117,0.133,0.445,0.125,0.608
		c-0.004,0.065-0.011,0.126-0.022,0.19C152.07,87.083,152.04,87.181,152.001,87.285L152.001,87.285z"/>
	<path fill-rule="evenodd" clip-rule="evenodd" fill="#E25778" d="M142.354,85.882c0.581,0.267,1.115,0.312,1.643-0.098
		c0.477-0.37,1.085-0.815,1.696-0.896c0.726-0.086,1.288,0.169,1.905,0.515c0.3,0.168,0.638,0.431,0.72,0.782
		c0.053,0.247-0.255,0.421-0.441,0.502c-0.327,0.141-0.577,0.147-0.925,0.163l-0.029,0.001c-0.364,0.015-0.747-0.003-1.097-0.111
		c0.299-0.076,0.528-0.201,0.685-0.375c-0.63,0.297-1.346,0.401-2.038,0.338C143.712,86.634,142.94,86.385,142.354,85.882
		L142.354,85.882z"/>
	<path fill-rule="evenodd" clip-rule="evenodd" fill="#1F2C5E" d="M130.545,83.722c-0.121-0.148-0.28-0.253-0.475-0.315
		c0.02-0.519,0.32-0.794,0.9-0.822C130.703,83.016,130.562,83.395,130.545,83.722L130.545,83.722z"/>
	<path fill-rule="evenodd" clip-rule="evenodd" fill="#1F2C5E" d="M129.179,83.717c0.085,0.065,0.228,0.008,0.429-0.169
		c-0.092-0.313-0.142-0.648-0.151-1.005C129.104,82.718,129.011,83.109,129.179,83.717L129.179,83.717z"/>
	<path fill-rule="evenodd" clip-rule="evenodd" fill="#5275A6" d="M131.157,85.06c-0.121,0.522-0.299,0.839-0.534,0.95
		c0.213-0.459,0.356-1.074,0.224-1.573c-0.105-0.372-0.51-0.744-0.914-0.708c-0.396,0.042-0.534,0.312-0.722,0.624
		c-0.245,0.406-0.377,0.829-0.186,1.288c0.034,0.083,0.17,0.291,0.224,0.379c0.512,0.83,1.127,1.723,1.822,2.412
		c-0.584-0.326-1.106-0.779-1.567-1.361c-0.82,0.222-1.439,0.657-1.89,1.38c-0.666,1.073-0.987,2.401-0.63,3.639
		c0.13,0.452,0.351,0.855,0.756,1.114c0.99,0.635,2.095,0.73,3.229,0.509c0.276-0.054,0.691-0.204,0.958-0.31
		c0.637-0.254,1.152-0.552,1.732-0.91c0.66-0.407,1.363-0.708,2.139-0.794c-0.092-0.252-0.172-0.479-0.156-0.752
		c0.007-0.107-0.058-0.224-0.095-0.328c-0.431-1.23-0.389-2.46-0.124-3.72l-0.603-0.005l-0.384,0.141
		c0.234,1.298-0.356,2.812-0.908,3.98c-0.46,0.969-1.259,2.349-2.479,2.37c1.405-0.666,2.057-2.04,2.55-3.432
		c0.261-0.74,0.648-1.847,0.578-2.627c-0.085-0.888-0.783-1.332-1.526-1.682C132.172,85.417,131.657,85.231,131.157,85.06
		L131.157,85.06z"/>
	<path fill-rule="evenodd" clip-rule="evenodd" fill="#9ADAF0" d="M133.176,77.45c0.431-0.17,0.929,0.068,1.111,0.532
		c0.182,0.463-0.02,0.977-0.451,1.146c-0.431,0.17-0.929-0.068-1.111-0.532C132.543,78.133,132.745,77.619,133.176,77.45
		L133.176,77.45z"/>
	<path fill-rule="evenodd" clip-rule="evenodd" fill="#9ADAF0" d="M147.245,78.647c0.595,0,1.078,0.448,1.078,1s-0.483,1-1.078,1
		s-1.078-0.448-1.078-1S146.649,78.647,147.245,78.647L147.245,78.647z"/>
	<path fill-rule="evenodd" clip-rule="evenodd" d="M137.688,77.103c1.764-0.862,3.375-0.633,4.833,0.685
		C141.053,76.818,139.442,76.589,137.688,77.103L137.688,77.103z"/>
	<path fill-rule="evenodd" clip-rule="evenodd" d="M138.666,76.153c1.265-0.538,2.359-0.374,3.28,0.493
		C140.947,76.003,139.854,75.839,138.666,76.153L138.666,76.153z"/>
	<path fill-rule="evenodd" clip-rule="evenodd" d="M134.733,83.923c-0.303,0.56-0.709,0.724-1.22,0.493
		C134.004,84.448,134.411,84.284,134.733,83.923L134.733,83.923z"/>
	<path fill-rule="evenodd" clip-rule="evenodd" fill="#1F2C5E" d="M135.924,81.022c-0.17-0.032-0.134-0.07-0.137-0.239
		c0.005-1.211,0.448-1.963,1.481-2.591c1.168-0.705,2.586-0.622,3.84-0.209c1.639,0.539,2.938,2.435,2.32,4.161
		c-0.082,0.221-0.187,0.019-0.401-0.055c-0.262-0.091-0.463,0.09-0.637,0.267c-0.291,0.297-0.391,0.617-0.597,0.92
		c-0.437,0.64-0.921,1.131-1.736,1.188c-0.742,0.052-1.397,0.028-2.077-0.311c-0.41-0.205-1.002-0.679-1.207-1.093
		c-0.195-0.401-0.295-0.834-0.33-1.276c-0.018-0.225-0.08-0.534-0.279-0.669C136.089,81.064,136.011,81.041,135.924,81.022
		L135.924,81.022z"/>
	<path fill-rule="evenodd" clip-rule="evenodd" d="M136.735,85.983c0.271,0.793,3.94,1.344,5.418,0.694
		C139.994,86.851,138.188,86.619,136.735,85.983L136.735,85.983z"/>
	<path fill-rule="evenodd" clip-rule="evenodd" fill="#5275A6" d="M148.242,85.554c0.072,0.077,0.131,0.153,0.178,0.23
		c0.068,0.105,0.12,0.22,0.149,0.344c0,0.002,0.001,0.003,0.001,0.005c0.023,0.107,0.013,0.204-0.02,0.291
		c0.682,0.07,1.281-0.051,1.797-0.363c-0.125-0.163-0.319-0.25-0.585-0.26c0.258-0.115,0.509-0.063,0.754,0.155
		c0.123-0.127,0.383-0.311,0.565-0.338c0.001-0.007,0.002-0.013,0.004-0.02c0.102-0.398,0.119-0.803,0.018-1.203
		c-0.006-0.024-0.007-0.049-0.003-0.072C150.383,84.951,149.345,85.447,148.242,85.554L148.242,85.554z M151.697,84.401
		c0.082-0.273,0.221-0.8,0.336-1.418c-0.204,0.407-0.511,0.885-0.788,1.198c0.029-0.004,0.059-0.001,0.089,0.011
		C151.478,84.248,151.598,84.319,151.697,84.401L151.697,84.401z"/>
	<path fill-rule="evenodd" clip-rule="evenodd" fill="#336699" d="M149.53,86.577c0.049,0.233,0.011,0.403-0.108,0.59
		c0.127-0.035,0.325-0.075,0.594-0.119c-0.046-0.218,0.014-0.44,0.176-0.745C149.983,86.446,149.762,86.537,149.53,86.577
		L149.53,86.577z"/>
	<path fill-rule="evenodd" clip-rule="evenodd" fill="#336699" d="M131.212,84.846c0.32,0.05,0.61,0.135,0.872,0.256
		c-0.009-0.088,0.02-0.17,0.087-0.247c-0.364-0.115-0.595-0.246-0.694-0.393c-0.081,0.001-0.176,0.039-0.283,0.114
		C131.206,84.756,131.212,84.846,131.212,84.846L131.212,84.846z"/>
	<path fill-rule="evenodd" clip-rule="evenodd" fill="#336699" d="M129.819,81.173c-0.073,0.717-0.056,1.378,0.05,1.983
		c0.041-0.23,0.201-0.421,0.471-0.594C130.133,82.316,129.956,81.846,129.819,81.173L129.819,81.173z"/>
	<path fill-rule="evenodd" clip-rule="evenodd" d="M139.209,89.862c0.05-0.042,0.007,0.004-0.013,0.037
		c-0.361,0.623-0.523,1.337-0.451,2.054c0.034,0.325,0.234,0.78,0.293,0.105c0.037-0.444-0.037-1.28,0.277-1.616
		c-0.043,0.616-0.043,1.25,0.04,1.863c0.041,0.297,0.11,0.573,0.254,0.838l0.011,0.02c0.097,0.176,0.255,0.348,0.242,0.009
		c-0.01-0.284-0.094-0.574-0.121-0.865c-0.008-0.089-0.055-0.62,0.055-0.641c0.083-0.016,0.11,0.48,0.119,0.562
		c0.034,0.29,0.077,0.571,0.119,0.859c0.021,0.144,0.077,0.642-0.175,0.603c-0.205-0.031-0.377-0.236-0.466-0.41
		c-0.096-0.189-0.127-0.365-0.184-0.565c-0.032-0.11-0.055-0.047-0.166-0.023c-0.209,0.045-0.301-0.087-0.389-0.251
		c-0.304-0.579-0.152-1.289,0.005-1.888c-0.251,0.257-0.687,0.598-1.071,0.51c-0.29-0.067-0.259-0.341-0.106-0.536
		c0.12-0.153,0.322-0.295,0.469-0.432c0.489-0.456,0.964-0.947,1.321-1.515c0.044-0.07,0.037-0.01,0.039,0.05
		c0.016,0.742-0.881,1.396-1.406,1.812c-0.054,0.042-0.418,0.333-0.163,0.344C138.106,90.802,138.928,90.099,139.209,89.862
		L139.209,89.862z"/>
	<path fill-rule="evenodd" clip-rule="evenodd" fill="#1F2C5E" d="M151.252,85.64c0.209,0.162,0.38,0.32,0.512,0.475
		c0.306-0.925,0.142-1.513-0.493-1.763C151.374,84.76,151.368,85.19,151.252,85.64L151.252,85.64z"/>
	<path fill-rule="evenodd" clip-rule="evenodd" d="M137.39,103.967c0.201-0.36,0.939-0.338,1.194-0.023
		C138.175,103.783,137.777,103.79,137.39,103.967L137.39,103.967z"/>
</g>
<g id="Layer_1">
	<defs>
		<script  language="JavaScript"></script>
	</defs>
	<script  type="text/JavaScript">
		<![CDATA[
function notify( ref, type ) {
    var event = document.createEvent("CustomEvent");
    event.initEvent(type,true,true);
    ref.dispatchEvent(event);
}

		
		
		
		
		
		
		
		
		
		
		
			]]>
	</script>
	<path fill="#F5A909" d="M143.329,14.193c0-2.861-9.302-9.327-23.238-9.327c-13.922,0-22.979,6.466-22.979,9.327"/>
	<line fill="none" stroke="#4D4947" stroke-width="5" x1="79.828" y1="138.493" x2="160.614" y2="138.493"/>
	<line fill="none" stroke="#4D4947" stroke-width="5" x1="79.828" y1="130.113" x2="160.614" y2="130.113"/>
	<g>
		<path fill="#EA8E10" d="M203.79,40.91v-4.526c0-3.206-2.524-5.802-5.629-5.802c0-5.642-11.845-10.64-30.136-13.814v-0.099
			c-13.312-2.005-30.541-3.215-49.379-3.215c-17.388,0-33.399,1.03-46.229,2.765V40.46h-0.002v6.914L36.65,47.373v86.217H203.79
			V47.872h-35.765V40.91H203.79z M115.517,91.793c0,0.688-0.555,1.249-1.244,1.249H43.56c-0.688,0-1.246-0.562-1.246-1.249V57.367
			c0-0.688,0.56-1.25,1.246-1.25h70.713c0.689,0,1.244,0.562,1.244,1.25V91.793z M196.878,56.117c0.688,0,1.242,0.562,1.242,1.25
			v34.426c0,0.688-0.556,1.249-1.242,1.249h-70.701c-0.692,0-1.264-0.562-1.264-1.249V57.367c0-0.688,0.567-1.25,1.264-1.25H196.878
			z"/>
		<path fill="#EA8E10" d="M72.415,40.46V16.269C54.124,19.444,42.28,24.442,42.28,30.084c-3.105,0-5.632,2.594-5.632,5.801v11.488
			h0.002V40.46H72.415z"/>
	</g>
	<path fill="none" stroke="#13110C" stroke-width="6" d="M185.608,93.131c0-9.027-9.754-15.581-18.487-15.581
		c-8.732,0-18.476,6.668-18.476,15.581"/>
	<g>
		<path fill="#231F20" d="M28.247,86.558c0,0.682-0.549,1.243-1.236,1.243H10.199c-0.684,0-1.248-0.562-1.248-1.243V62.517
			c0-0.689,0.564-1.243,1.248-1.243h16.811c0.689,0,1.236,0.554,1.236,1.243V86.558z"/>
		<path fill="none" stroke="#13110C" stroke-width="6" d="M18.601,87.801c0,5.763,7.994,10.417,17.886,10.417"/>
	</g>
	<g>
		<path fill="#231F20" d="M212.143,86.558c0,0.682,0.565,1.243,1.241,1.243h16.812c0.677,0,1.242-0.562,1.242-1.243V62.517
			c0-0.689-0.565-1.243-1.242-1.243h-16.812c-0.676,0-1.241,0.554-1.241,1.243V86.558z"/>
		<path fill="none" stroke="#13110C" stroke-width="6" d="M221.794,87.801c0,5.763-7.994,10.417-17.883,10.417"/>
	</g>
	<g>
		<path d="M74.525,24.132c0.953-0.173,2.46-0.303,3.989-0.303c2.183,0,3.587,0.324,4.643,1.06c0.878,0.562,1.402,1.427,1.402,2.573
			c0,1.406-1.078,2.638-2.857,3.2v0.043c1.604,0.346,3.484,1.492,3.484,3.654c0,1.254-0.575,2.206-1.43,2.919
			c-1.179,0.93-3.085,1.362-5.845,1.362c-1.505,0-2.659-0.086-3.389-0.173L74.525,24.132L74.525,24.132z M76.707,30.099h1.979
			c2.311,0,3.663-1.038,3.663-2.443c0-1.708-1.505-2.378-3.713-2.378c-1.003,0-1.58,0.065-1.932,0.13L76.707,30.099L76.707,30.099z
			 M76.707,37.083c0.427,0.065,1.054,0.087,1.831,0.087c2.258,0,4.34-0.714,4.34-2.833c0-1.989-1.981-2.811-4.364-2.811h-1.807
			V37.083L76.707,37.083z"/>
		<path d="M90.305,23.937v8.627c0,3.265,1.682,4.648,3.938,4.648c2.509,0,4.112-1.427,4.112-4.648v-8.627h2.207v8.498
			c0,4.476-2.732,6.313-6.396,6.313c-3.462,0-6.07-1.708-6.07-6.227v-8.584H90.305z"/>
		<path d="M104.053,36.218c0.979,0.519,2.408,0.952,3.913,0.952c2.232,0,3.537-1.017,3.537-2.487c0-1.362-0.903-2.141-3.188-2.897
			c-2.76-0.843-4.465-2.076-4.465-4.13c0-2.271,2.184-3.957,5.469-3.957c1.73,0,2.984,0.346,3.737,0.714l-0.603,1.535
			c-0.553-0.26-1.683-0.692-3.211-0.692c-2.31,0-3.188,1.189-3.188,2.184c0,1.362,1.028,2.032,3.361,2.811
			c2.858,0.951,4.312,2.14,4.312,4.281c0,2.249-1.932,4.195-5.92,4.195c-1.631,0-3.411-0.411-4.312-0.93L104.053,36.218z"/>
		<path d="M121.889,31.959v1.405h-6.194v-1.405H121.889z"/>
		<path d="M124.549,24.132c0.953-0.173,2.459-0.303,3.989-0.303c2.182,0,3.587,0.324,4.641,1.06
			c0.878,0.562,1.404,1.427,1.404,2.573c0,1.406-1.078,2.638-2.858,3.2v0.043c1.605,0.346,3.485,1.492,3.485,3.654
			c0,1.254-0.576,2.206-1.43,2.919c-1.18,0.93-3.086,1.362-5.846,1.362c-1.506,0-2.659-0.086-3.388-0.173L124.549,24.132
			L124.549,24.132z M126.733,30.099h1.981c2.309,0,3.663-1.038,3.663-2.443c0-1.708-1.506-2.378-3.713-2.378
			c-1.004,0-1.58,0.065-1.933,0.13L126.733,30.099L126.733,30.099z M126.733,37.083c0.428,0.065,1.055,0.087,1.831,0.087
			c2.258,0,4.34-0.714,4.34-2.833c0-1.989-1.98-2.811-4.363-2.811h-1.808V37.083L126.733,37.083z"/>
		<path d="M149.962,38.034c-0.803,0.346-2.408,0.692-4.465,0.692c-4.768,0-8.355-2.595-8.355-7.373c0-4.562,3.587-7.654,8.829-7.654
			c2.107,0,3.438,0.389,4.015,0.649l-0.526,1.535c-0.827-0.346-2.007-0.605-3.411-0.605c-3.964,0-6.598,2.184-6.598,6.011
			c0,3.567,2.383,5.859,6.497,5.859c1.329,0,2.685-0.238,3.562-0.605L149.962,38.034z"/>
		<path d="M152.698,38.51V23.937h2.384l5.418,7.373c1.254,1.708,2.231,3.244,3.035,4.735l0.051-0.021
			c-0.201-1.946-0.251-3.719-0.251-5.989v-6.098h2.058V38.51h-2.207l-5.368-7.394c-1.181-1.622-2.31-3.287-3.16-4.865l-0.075,0.021
			c0.125,1.838,0.176,3.589,0.176,6.011v6.227L152.698,38.51L152.698,38.51z"/>
	</g>
	<rect x="36.65" y="40.46" fill="#EA8E10" width="35.766" height="6.914"/>
	<rect x="168.146" y="40.91" fill="#EA8E10" width="35.766" height="7.836"/>
	<path fill="#E30613" stroke="#DD1215" stroke-width="0.2339" d="M173.449,34.682c0,5.866,4.735,10.608,10.596,10.608
		c5.854,0,10.603-4.742,10.603-10.608c0-5.839-4.748-10.596-10.603-10.596C178.186,24.086,173.449,28.843,173.449,34.682z"/>
	<path fill="#E30613" stroke="#DD1215" stroke-width="0.2339" d="M44.56,34.682c0,5.866,4.744,10.608,10.584,10.608
		c5.863,0,10.613-4.742,10.613-10.608c0-5.839-4.75-10.596-10.613-10.596C49.304,24.086,44.56,28.843,44.56,34.682z"/>
	<path fill="#F5A909" d="M213.098,132.777c-4.225-4.224-12.777-4.512-19.145-8.106c-25.554-14.445-43.263-19.029-73.162-19.029
		c-0.188,0-0.381,0.002-0.568,0.004c-0.188-0.001-0.385-0.004-0.569-0.004c-29.899,0-47.606,4.584-73.161,19.029
		c-6.367,3.597-14.923,3.886-19.146,8.106c-12.045,12.046-4.393,37.98-4.393,37.98c0,0.695,0.555,1.248,1.241,1.248h96.024h96.027
		c0.688,0,1.244-0.553,1.244-1.248C217.49,170.756,225.145,144.823,213.098,132.777z"/>
	<path fill="#231F20" d="M216.016,172.004h-18.505h-39.844h-75.73H42.691H24.429c-0.729,0-1.311,0.83-1.311,1.861l3.521,8.496
		c0,1.078,0.562,1.967,1.252,1.967h13.404v26.131c0,0.854,0.625,1.549,1.395,1.549h39.246c0.768,0,1.393-0.694,1.393-1.549v-16.332
		h72.936v16.332c0,0.854,0.619,1.549,1.404,1.549h39.844c0.779,0,1.398-0.694,1.398-1.549v-26.131h13.629
		c0.699,0,1.266-0.889,1.266-1.967l3.518-8.496C217.321,172.835,216.729,172.004,216.016,172.004z"/>
	<path fill="#12100B" stroke="#4D4947" stroke-width="6" d="M162.682,155.443c0,3.901-3.162,7.063-7.063,7.063H84.823
		c-3.902,0-7.064-3.162-7.064-7.063v-26.56c0-3.907,3.162-7.069,7.064-7.069h70.795c3.901,0,7.063,3.162,7.063,7.069V155.443
		L162.682,155.443z"/>
	<path fill="#D0D0D0" stroke="#231F20" stroke-width="4" d="M213.374,147.778c0,8.426-6.817,15.258-15.256,15.258
		c-8.41,0-15.248-6.83-15.248-15.258c0-8.424,6.838-15.255,15.248-15.255C206.557,132.524,213.374,139.354,213.374,147.778z"/>
	<path fill="#FFFFFF" stroke="#231F20" stroke-width="2" d="M207.565,147.778c0,5.217-4.222,9.443-9.442,9.443
		c-5.207,0-9.439-4.229-9.439-9.443c0-5.214,4.232-9.441,9.439-9.441C203.343,138.336,207.565,142.564,207.565,147.778z"/>
	<path fill="#D0D0D0" stroke="#231F20" stroke-width="4" d="M57.571,147.778c0,8.426-6.817,15.258-15.259,15.258
		c-8.409,0-15.248-6.83-15.248-15.258c0-8.424,6.839-15.255,15.248-15.255C50.751,132.524,57.571,139.354,57.571,147.778z"/>
	<path fill="#FFFFFF" stroke="#231F20" stroke-width="2" d="M51.757,147.778c0,5.217-4.221,9.443-9.443,9.443
		c-5.207,0-9.438-4.229-9.438-9.443c0-5.214,4.23-9.441,9.438-9.441C47.538,138.336,51.757,142.564,51.757,147.778z"/>
	<line fill="none" stroke="#4D4947" stroke-width="5" x1="79.828" y1="146.874" x2="160.614" y2="146.874"/>
	<line fill="none" stroke="#4D4947" stroke-width="5" x1="79.828" y1="155.254" x2="160.614" y2="155.254"/>
</g>
</svg>
